<mxfile host="app.diagrams.net" agent="Mozilla/5.0 (Macintosh; Intel Mac OS X 10_15_7) AppleWebKit/605.1.15 (KHTML, like Gecko) Version/18.1.1 Safari/605.1.15" version="26.0.8">
  <diagram name="Page-1" id="10a91c8b-09ff-31b1-d368-03940ed4cc9e">
    <mxGraphModel dx="857" dy="384" grid="1" gridSize="10" guides="1" tooltips="1" connect="1" arrows="1" fold="1" page="1" pageScale="1" pageWidth="1100" pageHeight="850" background="none" math="0" shadow="0">
      <root>
        <mxCell id="0" />
        <mxCell id="1" parent="0" />
        <mxCell id="62893188c0fa7362-1" value="&lt;font style=&quot;font-size: 27px;&quot;&gt;X&lt;/font&gt;" style="whiteSpace=wrap;html=1;rounded=1;shadow=1;labelBackgroundColor=none;strokeWidth=1;fontFamily=Verdana;fontSize=12;align=center;" parent="1" vertex="1">
          <mxGeometry x="610" y="60" width="40" height="40" as="geometry" />
        </mxCell>
        <mxCell id="62893188c0fa7362-2" value="&lt;font style=&quot;font-size: 25px;&quot;&gt;A&lt;sub&gt;a&lt;/sub&gt;&lt;/font&gt;" style="whiteSpace=wrap;html=1;rounded=1;shadow=1;labelBackgroundColor=none;strokeWidth=1;fontFamily=Verdana;fontSize=12;align=center;" parent="1" vertex="1">
          <mxGeometry x="560" y="110" width="40" height="40" as="geometry" />
        </mxCell>
        <mxCell id="RS-GX9ZVsEz3ax7IGjuG-9" style="rounded=0;orthogonalLoop=1;jettySize=auto;html=1;exitX=0;exitY=1;exitDx=0;exitDy=0;entryX=1;entryY=0;entryDx=0;entryDy=0;endArrow=none;startFill=0;" edge="1" parent="1" source="62893188c0fa7362-3" target="RS-GX9ZVsEz3ax7IGjuG-3">
          <mxGeometry relative="1" as="geometry" />
        </mxCell>
        <mxCell id="RS-GX9ZVsEz3ax7IGjuG-12" value="" style="rounded=0;orthogonalLoop=1;jettySize=auto;html=1;endArrow=none;startFill=0;" edge="1" parent="1" source="62893188c0fa7362-3" target="RS-GX9ZVsEz3ax7IGjuG-11">
          <mxGeometry relative="1" as="geometry" />
        </mxCell>
        <mxCell id="62893188c0fa7362-3" value="&lt;span&gt;&lt;font style=&quot;font-size: 25px;&quot;&gt;|&lt;/font&gt;&lt;/span&gt;" style="whiteSpace=wrap;html=1;rounded=1;shadow=1;labelBackgroundColor=none;strokeWidth=1;fontFamily=Verdana;fontSize=12;align=center;" parent="1" vertex="1">
          <mxGeometry x="660" y="110" width="40" height="40" as="geometry" />
        </mxCell>
        <mxCell id="RS-GX9ZVsEz3ax7IGjuG-3" value="&lt;span&gt;&lt;font style=&quot;font-size: 25px;&quot;&gt;I&lt;/font&gt;&lt;/span&gt;" style="whiteSpace=wrap;html=1;rounded=1;shadow=1;labelBackgroundColor=none;strokeWidth=1;fontFamily=Verdana;fontSize=12;align=center;" vertex="1" parent="1">
          <mxGeometry x="610" y="160" width="40" height="40" as="geometry" />
        </mxCell>
        <mxCell id="RS-GX9ZVsEz3ax7IGjuG-5" value="" style="endArrow=none;html=1;rounded=0;entryX=0;entryY=1;entryDx=0;entryDy=0;exitX=1;exitY=0;exitDx=0;exitDy=0;" edge="1" parent="1" source="62893188c0fa7362-2" target="62893188c0fa7362-1">
          <mxGeometry width="50" height="50" relative="1" as="geometry">
            <mxPoint x="460" y="120" as="sourcePoint" />
            <mxPoint x="510" y="70" as="targetPoint" />
          </mxGeometry>
        </mxCell>
        <mxCell id="RS-GX9ZVsEz3ax7IGjuG-6" value="" style="endArrow=none;html=1;rounded=0;entryX=1;entryY=1;entryDx=0;entryDy=0;exitX=0;exitY=0;exitDx=0;exitDy=0;" edge="1" parent="1" source="62893188c0fa7362-3" target="62893188c0fa7362-1">
          <mxGeometry width="50" height="50" relative="1" as="geometry">
            <mxPoint x="590" y="140" as="sourcePoint" />
            <mxPoint x="620" y="110" as="targetPoint" />
          </mxGeometry>
        </mxCell>
        <mxCell id="RS-GX9ZVsEz3ax7IGjuG-18" value="" style="rounded=0;orthogonalLoop=1;jettySize=auto;html=1;endArrow=none;startFill=0;" edge="1" parent="1" source="RS-GX9ZVsEz3ax7IGjuG-11" target="RS-GX9ZVsEz3ax7IGjuG-17">
          <mxGeometry relative="1" as="geometry" />
        </mxCell>
        <mxCell id="RS-GX9ZVsEz3ax7IGjuG-11" value="&lt;span&gt;&lt;font style=&quot;font-size: 25px;&quot;&gt;&lt;sup&gt;+&lt;/sup&gt;&lt;/font&gt;&lt;/span&gt;" style="whiteSpace=wrap;html=1;rounded=1;shadow=1;labelBackgroundColor=none;strokeWidth=1;fontFamily=Verdana;fontSize=12;align=center;" vertex="1" parent="1">
          <mxGeometry x="710" y="160" width="40" height="40" as="geometry" />
        </mxCell>
        <mxCell id="RS-GX9ZVsEz3ax7IGjuG-20" value="" style="rounded=0;orthogonalLoop=1;jettySize=auto;html=1;endArrow=none;startFill=0;" edge="1" parent="1" source="RS-GX9ZVsEz3ax7IGjuG-17" target="RS-GX9ZVsEz3ax7IGjuG-19">
          <mxGeometry relative="1" as="geometry" />
        </mxCell>
        <mxCell id="RS-GX9ZVsEz3ax7IGjuG-22" value="" style="rounded=0;orthogonalLoop=1;jettySize=auto;html=1;endArrow=none;startFill=0;" edge="1" parent="1" source="RS-GX9ZVsEz3ax7IGjuG-17" target="RS-GX9ZVsEz3ax7IGjuG-21">
          <mxGeometry relative="1" as="geometry" />
        </mxCell>
        <mxCell id="RS-GX9ZVsEz3ax7IGjuG-17" value="&lt;span&gt;&lt;font style=&quot;font-size: 25px;&quot;&gt;|&lt;/font&gt;&lt;/span&gt;" style="whiteSpace=wrap;html=1;rounded=1;shadow=1;labelBackgroundColor=none;strokeWidth=1;fontFamily=Verdana;fontSize=12;align=center;" vertex="1" parent="1">
          <mxGeometry x="750" y="210" width="40" height="40" as="geometry" />
        </mxCell>
        <mxCell id="RS-GX9ZVsEz3ax7IGjuG-24" value="" style="rounded=0;orthogonalLoop=1;jettySize=auto;html=1;endArrow=none;startFill=0;entryX=1;entryY=0;entryDx=0;entryDy=0;" edge="1" parent="1" source="RS-GX9ZVsEz3ax7IGjuG-19" target="RS-GX9ZVsEz3ax7IGjuG-23">
          <mxGeometry relative="1" as="geometry" />
        </mxCell>
        <mxCell id="RS-GX9ZVsEz3ax7IGjuG-27" value="" style="rounded=0;orthogonalLoop=1;jettySize=auto;html=1;endArrow=none;startFill=0;" edge="1" parent="1" source="RS-GX9ZVsEz3ax7IGjuG-19" target="RS-GX9ZVsEz3ax7IGjuG-26">
          <mxGeometry relative="1" as="geometry" />
        </mxCell>
        <mxCell id="RS-GX9ZVsEz3ax7IGjuG-19" value="&lt;span&gt;&lt;font style=&quot;font-size: 25px;&quot;&gt;X&lt;/font&gt;&lt;/span&gt;" style="whiteSpace=wrap;html=1;rounded=1;shadow=1;labelBackgroundColor=none;strokeWidth=1;fontFamily=Verdana;fontSize=12;align=center;" vertex="1" parent="1">
          <mxGeometry x="800" y="260" width="40" height="40" as="geometry" />
        </mxCell>
        <mxCell id="RS-GX9ZVsEz3ax7IGjuG-21" value="&lt;font style=&quot;font-size: 25px;&quot;&gt;A&lt;sub&gt;b&lt;/sub&gt;&lt;/font&gt;" style="whiteSpace=wrap;html=1;rounded=1;shadow=1;labelBackgroundColor=none;strokeWidth=1;fontFamily=Verdana;fontSize=12;align=center;" vertex="1" parent="1">
          <mxGeometry x="700" y="260" width="40" height="40" as="geometry" />
        </mxCell>
        <mxCell id="RS-GX9ZVsEz3ax7IGjuG-23" value="&lt;font style=&quot;font-size: 25px;&quot;&gt;A&lt;sub&gt;c&lt;/sub&gt;&lt;/font&gt;" style="whiteSpace=wrap;html=1;rounded=1;shadow=1;labelBackgroundColor=none;strokeWidth=1;fontFamily=Verdana;fontSize=12;align=center;" vertex="1" parent="1">
          <mxGeometry x="750" y="310" width="40" height="40" as="geometry" />
        </mxCell>
        <mxCell id="RS-GX9ZVsEz3ax7IGjuG-26" value="&lt;font style=&quot;font-size: 25px;&quot;&gt;A&lt;sub&gt;d&lt;/sub&gt;&lt;/font&gt;" style="whiteSpace=wrap;html=1;rounded=1;shadow=1;labelBackgroundColor=none;strokeWidth=1;fontFamily=Verdana;fontSize=12;align=center;" vertex="1" parent="1">
          <mxGeometry x="840" y="310" width="40" height="40" as="geometry" />
        </mxCell>
      </root>
    </mxGraphModel>
  </diagram>
</mxfile>
